<svg width="24" height="24" viewBox="0 0 24 24" fill="none" xmlns="http://www.w3.org/2000/svg">
<path d="M0 12C0 5.37258 5.37258 0 12 0C18.6274 0 24 5.37258 24 12C24 18.6274 18.6274 24 12 24C5.37258 24 0 18.6274 0 12Z" fill="#FE0170"/>
<path d="M12.9457 18.6667V12.7131H14.8217L15.2054 10.3914H12.9457V8.77447C12.9457 8.11112 13.2016 7.61361 14.2248 7.61361H15.3333V5.49918C14.7364 5.41626 14.0543 5.33334 13.4574 5.33334C11.4961 5.33334 10.1318 6.49421 10.1318 8.56717V10.3914H8V12.7131H10.1318V18.6667H12.9457Z" fill="white"/>
</svg>
