<svg width="24" height="24" viewBox="0 0 24 24" fill="none" xmlns="http://www.w3.org/2000/svg">
<path d="M0 12C0 5.37258 5.37258 0 12 0C18.6274 0 24 5.37258 24 12C24 18.6274 18.6274 24 12 24C5.37258 24 0 18.6274 0 12Z" fill="#FE0170"/>
<path d="M12 6.53457C13.7801 6.53457 13.9909 6.54134 14.6939 6.57342C15.3439 6.60308 15.6969 6.71169 15.9318 6.80296C16.243 6.9239 16.4651 7.06839 16.6983 7.30166C16.9316 7.53494 17.0761 7.75704 17.197 8.0682C17.2883 8.30314 17.3969 8.65614 17.4266 9.3061C17.4587 10.0091 17.4654 10.2199 17.4654 12C17.4654 13.7801 17.4587 13.9909 17.4266 14.6939C17.3969 15.3439 17.2883 15.6969 17.197 15.9318C17.0761 16.243 16.9316 16.4651 16.6983 16.6984C16.4651 16.9317 16.243 17.0761 15.9318 17.1971C15.6969 17.2884 15.3439 17.397 14.6939 17.4266C13.991 17.4587 13.7802 17.4655 12 17.4655C10.2198 17.4655 10.009 17.4587 9.30609 17.4266C8.6561 17.397 8.3031 17.2884 8.06819 17.1971C7.757 17.0761 7.5349 16.9317 7.30162 16.6984C7.06835 16.4651 6.92386 16.243 6.80295 15.9318C6.71165 15.6969 6.60304 15.3439 6.57338 14.6939C6.5413 13.9909 6.53453 13.7801 6.53453 12C6.53453 10.2199 6.5413 10.0091 6.57338 9.30613C6.60304 8.65614 6.71165 8.30314 6.80295 8.0682C6.92386 7.75704 7.06835 7.53494 7.30162 7.30166C7.5349 7.06839 7.757 6.9239 8.06819 6.80296C8.3031 6.71169 8.6561 6.60308 9.30606 6.57342C10.0091 6.54134 10.2199 6.53457 12 6.53457ZM12 5.33334C10.1894 5.33334 9.96241 5.34102 9.25134 5.37346C8.54172 5.40585 8.05712 5.51853 7.63305 5.68335C7.19466 5.85372 6.82287 6.08167 6.45225 6.45229C6.08163 6.82291 5.85368 7.1947 5.68331 7.63309C5.51849 8.05717 5.40581 8.54176 5.37342 9.25138C5.34098 9.96242 5.33333 10.1895 5.33333 12C5.33333 13.8106 5.34098 14.0376 5.37342 14.7487C5.40581 15.4583 5.51849 15.9429 5.68331 16.367C5.85368 16.8053 6.08163 17.1771 6.45225 17.5478C6.82287 17.9184 7.19466 18.1463 7.63305 18.3167C8.05712 18.4815 8.54172 18.5942 9.25134 18.6266C9.96241 18.659 10.1894 18.6667 12 18.6667C13.8106 18.6667 14.0376 18.659 14.7486 18.6266C15.4582 18.5942 15.9428 18.4815 16.3669 18.3167C16.8053 18.1463 17.1771 17.9184 17.5477 17.5478C17.9183 17.1771 18.1463 16.8053 18.3167 16.367C18.4815 15.9429 18.5942 15.4583 18.6265 14.7487C18.659 14.0376 18.6667 13.8106 18.6667 12C18.6667 10.1895 18.659 9.96242 18.6265 9.25138C18.5942 8.54176 18.4815 8.05717 18.3167 7.63309C18.1463 7.1947 17.9183 6.82291 17.5477 6.45229C17.1771 6.08167 16.8053 5.85372 16.3669 5.68335C15.9428 5.51853 15.4582 5.40585 14.7486 5.37346C14.0376 5.34102 13.8106 5.33334 12 5.33334ZM12 8.57659C10.1093 8.57659 8.57655 10.1093 8.57655 12C8.57655 13.8907 10.1093 15.4235 12 15.4235C13.8907 15.4235 15.4234 13.8907 15.4234 12C15.4234 10.1093 13.8907 8.57659 12 8.57659ZM12 14.2223C10.7727 14.2223 9.77775 13.2273 9.77775 12C9.77775 10.7727 10.7727 9.77779 12 9.77779C13.2273 9.77779 14.2222 10.7727 14.2222 12C14.2222 13.2273 13.2273 14.2223 12 14.2223ZM16.3587 8.44133C16.3587 8.88317 16.0005 9.24135 15.5587 9.24135C15.1168 9.24135 14.7587 8.88317 14.7587 8.44133C14.7587 7.9995 15.1168 7.64135 15.5587 7.64135C16.0005 7.64135 16.3587 7.9995 16.3587 8.44133Z" fill="white"/>
</svg>
