<svg width="16" height="16" viewBox="0 0 16 16" fill="none" xmlns="http://www.w3.org/2000/svg">
<path fill-rule="evenodd" clip-rule="evenodd" d="M1.3335 7.99998C1.3335 4.32665 4.32683 1.33331 8.00016 1.33331C11.6735 1.33331 14.6668 4.32665 14.6668 7.99998C14.6668 11.6733 11.6735 14.6666 8.00016 14.6666C4.32683 14.6666 1.3335 11.6733 1.3335 7.99998ZM2.66683 7.99998C2.66683 10.94 5.06016 13.3333 8.00016 13.3333C10.9402 13.3333 13.3335 10.94 13.3335 7.99998C13.3335 5.05998 10.9402 2.66665 8.00016 2.66665C5.06016 2.66665 2.66683 5.05998 2.66683 7.99998ZM7.3335 8.27331V3.99998H8.66683V7.72665L11.1402 10.1933L10.1935 11.14L7.3335 8.27331Z" fill="#FAFAFA"/>
</svg>
