<svg width="16" height="16" viewBox="0 0 16 16" fill="none" xmlns="http://www.w3.org/2000/svg">
<path fill-rule="evenodd" clip-rule="evenodd" d="M11.3333 5.33333C11.3333 7.17333 9.84 8.66667 8 8.66667C6.16 8.66667 4.66667 7.17333 4.66667 5.33333C4.66667 3.49333 6.16 2 8 2C9.84 2 11.3333 3.49333 11.3333 5.33333ZM10 5.33333C10 4.23333 9.1 3.33333 8 3.33333C6.9 3.33333 6 4.23333 6 5.33333C6 6.43333 6.9 7.33333 8 7.33333C9.1 7.33333 10 6.43333 10 5.33333ZM2 14.6667V10H14V14.6667H2ZM3.33333 11.3333V13.3333H12.6667V11.3333H3.33333Z" fill="#FAFAFA"/>
</svg>
