<svg width="24" height="24" viewBox="0 0 24 24" fill="none" xmlns="http://www.w3.org/2000/svg">
<path d="M0 12C0 5.37258 5.37258 0 12 0C18.6274 0 24 5.37258 24 12C24 18.6274 18.6274 24 12 24C5.37258 24 0 18.6274 0 12Z" fill="#FE0170"/>
<path fill-rule="evenodd" clip-rule="evenodd" d="M17.3915 6.96537C18.0065 7.13002 18.4899 7.61337 18.6545 8.22845C18.9521 9.34216 18.9533 11.6672 18.9533 11.6672C18.9533 11.6672 18.9533 13.9923 18.6545 15.106C18.4899 15.721 18.0065 16.2044 17.3915 16.369C16.2778 16.6677 11.8099 16.6677 11.8099 16.6677C11.8099 16.6677 7.34217 16.6677 6.22846 16.369C5.61339 16.2044 5.13003 15.721 4.96539 15.106C4.66667 13.9923 4.66667 11.6672 4.66667 11.6672C4.66667 11.6672 4.66667 9.34216 4.96539 8.22845C5.13003 7.61337 5.61339 7.13002 6.22846 6.96537C7.34217 6.66666 11.8099 6.66666 11.8099 6.66666C11.8099 6.66666 16.2778 6.66666 17.3915 6.96537ZM14.0915 11.6674L10.3799 13.8101V9.52465L14.0915 11.6674Z" fill="white"/>
</svg>
